<?xml version="1.0" standalone="no"?> <!DOCTYPE svg PUBLIC "-//W3C//DTD SVG 1.0//EN" "http://www.w3.org/TR/2001/REC-SVG-20010904/DTD/svg10.dtd" > <svg xmlns="http://www.w3.org/2000/svg" width="100%" height="100%">
<defs >
<font id="quattrocentoregular" horiz-adv-x="517" ><font-face
    font-family="Quattrocento"
    units-per-em="1000"
    panose-1="2 0 5 2 3 0 0 0 0 4"
    ascent="882"
    descent="-260"
    alphabetic="0" />
<missing-glyph horiz-adv-x="266" d="M65 243Q65 270 85 291T133 312Q159 312 180 291T201 243Q201 215 181 196T133 176Q104 176 85 195T65 243Z" />
<glyph unicode=" " glyph-name="space" horiz-adv-x="253" />
<glyph unicode="!" glyph-name="exclam" horiz-adv-x="246" d="M163 686L168 683Q168 676 168 666T167 654Q167 651 164 620T159 553T152 417T145 172L140 165L105 149L99 153Q92 440 77 651L81 660L163 686ZM75 16T75 35T89 68T122 83Q140 83 154 69T169 35Q169
17 155 3T122 -11Q103 -11 89 2Z" />
<glyph unicode="&quot;" glyph-name="quotedbl" horiz-adv-x="288" d="M100 526L58 516L56 521Q54 638 44 717L45 721L112 730L114 726Q102 650 102 530L100 526ZM233 526L191 516L189 521Q187 638 177 717L179 721L245 730L247 726Q237 663 235 530L233 526Z" />
<glyph unicode="#" glyph-name="numbersign" horiz-adv-x="619" d="M293 0L292 4Q318 81 350 222H216Q190 91 182 4L179 0H103L102 4Q128 81 160 222H40L49 275H172L197 394H69L78 446H208Q234 573 240 650L242 654H318L320 650Q290 566 264 446H398Q424 573 430
650L432 654H508L510 650Q480 566 454 446H580L571 394H443L418 275H549L540 222H406Q380 91 372 4L369 0H293ZM252 394L228 275H362L387 394H252Z" />
<glyph unicode="$" glyph-name="dollar" horiz-adv-x="529" d="M237 -96L235 -93Q238 -64 242 2Q140 3 50 49L46 63L63 164H88L93 159Q102 52 243 47Q245 98 245 198V309Q243 309 242 310Q152 336 104 376T56 488Q56 567 106 606T242 651Q241 691 235 747L237
750H298L300 747Q296 719 292 651Q378 647 443 619L447 608L433 523H405L401 528Q395 596 291 605Q290 562 290 493V379Q291 378 293 378Q327 368 352 358T405 332T450 295T478 246T490 181Q490 99 436 55T293 4Q294 -34 300 -93L298 -96H237ZM290 295V198Q290
99 291 48Q352 55 382 87T413 168Q413 218 381 246T290 295ZM129 500Q129 457 155 435T245 393V493Q245 563 244 605Q189 600 159 573T129 500Z" />
<glyph unicode="%" glyph-name="percent" horiz-adv-x="780" d="M121 19L122 23Q214 132 319 278L439 443Q555 604 591 669L596 673H672L671 669Q611 602 495 443L375 278Q261 120 202 23L197 19H121ZM594 357Q661 357 700 304T740 174T700 43T591 -11Q524 -11
487 41T450 170Q450 250 489 303T594 357ZM594 27Q639 27 665 69T691 174T664 278T592 319Q548 319 524 279T499 174Q499 107 525 67T594 27ZM187 665Q254 665 293 612T332 482T293 351T184 297Q117 297 80 349T42 478Q42 558 81 611T187 665ZM187 335Q231 335
257 377T283 482T256 586T185 627T116 587T91 482Q91 415 117 375T187 335Z" />
<glyph unicode="&amp;" glyph-name="ampersand" horiz-adv-x="742" d="M706 424Q706 417 698 400T668 365T616 347Q610 347 594 348L556 350L519 353Q549 308 549 239Q549 160 511 104Q552 63 590 43T679 20L685 16L688 -2L685 -6Q670 -6 628 -8T580 -10Q532 -10
466 54Q388 -10 276 -10Q182 -10 115 38T48 172Q48 234 84 290T180 370Q147 414 134 445T120 513Q120 582 162 622T273 663Q321 663 359 644T405 584L408 574L396 503H363L359 507Q354 563 332 587T271 612Q229 612 209 588T189 528Q189 490 205 455T275 357T467
148Q492 195 492 242Q492 297 455 356Q434 355 424 350T404 331L390 338Q390 358 416 386T485 414Q494 414 546 410T627 406Q675 406 693 432L706 424ZM426 96L336 194Q260 276 217 325Q171 311 146 268T120 179Q120 115 170 79T285 43Q367 43 426 96Z" />
<glyph unicode="&apos;" glyph-name="quotesingle" horiz-adv-x="154" d="M100 526L58 516L56 521Q54 638 44 717L45 721L112 730L114 726Q102 650 102 530L100 526Z" />
<glyph unicode="(" glyph-name="parenleft" horiz-adv-x="283" d="M242 771L257 760V755Q170 646 140 523Q120 442 120 327Q120 276 124 235T140 135T182 16T257 -101V-106L242 -117Q146 -31 93 84T40 327Q40 453 93 568T242 771Z" />
<glyph unicode=")" glyph-name="parenright" horiz-adv-x="283" d="M26 760L41 771Q137 684 190 569T243 327T190 85T41 -117L26 -106V-101Q71 -44 100 16T142 134T158 234T162 327Q162 441 142 523Q112 645 26 755V760Z" />
<glyph unicode="*" glyph-name="asterisk" horiz-adv-x="413" d="M362 486L364 481Q342 455 335 431Q334 431 332 430H330Q287 467 222 509Q230 416 239 377L235 374Q222 375 208 375Q192 375 180 374L177 377Q182 406 192 510Q126 465 85 429Q84 429 83 429T80
430Q68 456 52 476V479Q53 482 53 483Q119 507 176 538Q112 571 57 589L55 596Q76 623 85 644L89 645Q108 627 194 565Q185 639 169 698L172 702Q184 700 201 700Q219 700 229 702L232 699Q222 656 222 565Q284 613 321 651Q322 648 326 648Q340 620 354 601Q353
599 353 594Q284 567 232 539Q294 505 362 486Z" />
<glyph unicode="+" glyph-name="plus" horiz-adv-x="483" d="M267 427V265H439L429 213H267V41H215V213H44L53 265H215V427H267Z" />
<glyph unicode="," glyph-name="comma" horiz-adv-x="213" d="M63 -77H57L51 -71V-67Q74 -31 74 1Q74 7 69 23T63 50Q63 65 82 74T122 83Q147 83 147 40Q147 5 118 -31T63 -77Z" />
<glyph unicode="-" glyph-name="hyphen" horiz-adv-x="471" d="M76 265H405L395 213H67L76 265Z" />
<glyph unicode="." glyph-name="period" horiz-adv-x="217" d="M62 16T62 35T75 68T108 83T141 69T156 35T142 3T108 -11T76 2Z" />
<glyph unicode="/" glyph-name="slash" horiz-adv-x="430" d="M37 -57V-53Q83 40 159 249L226 433Q291 609 310 698L313 702H391L392 698Q361 640 284 433L216 249Q143 55 118 -53L115 -57H37Z" />
<glyph unicode="0" glyph-name="zero" horiz-adv-x="664" d="M210 665T332 665T526 568T598 329Q598 239 568 163T475 38T327 -11Q204 -11 136 84T67 322Q67 469 138 567ZM331 42Q418 42 469 124T521 328Q521 451 469 531T328 612Q241 612 193 534T145 329Q145
197 196 120T331 42Z" />
<glyph unicode="1" glyph-name="one" horiz-adv-x="365" d="M45 541V554L48 560Q152 611 207 663H214L236 654Q235 645 234 630T233 598T232 577Q229 534 229 399V258Q229 128 233 82Q235 53 257 33Q277 18 319 18L324 13L326 0L324 -4Q248 0 222 0H165Q139 0
63 -4L61 0L63 14L66 18Q114 18 131 33Q153 53 155 82Q159 127 159 234V397Q159 521 155 564L48 537L45 541Z" />
<glyph unicode="2" glyph-name="two" horiz-adv-x="551" d="M78 474L66 546L69 555Q132 665 274 665Q471 665 471 493Q471 451 452 414T393 323Q364 283 307 218L213 108Q176 63 176 51L178 48H256Q311 48 337 49T389 53T423 66T440 89T454 127L459 133H486L468
4L459 -6Q351 0 264 0H165Q130 0 62 -6L52 5V28Q73 55 186 183T344 373Q398 448 398 505Q398 553 361 582T268 612Q201 612 161 578T116 478L112 474H78Z" />
<glyph unicode="3" glyph-name="three" horiz-adv-x="558" d="M107 147Q109 104 150 73T262 42Q344 42 381 85T418 185Q418 244 382 288T280 332H252L263 369Q318 369 351 409T384 504Q384 551 355 581T259 612T163 579T126 478L122 474H89L77 546L79 555Q103
600 153 632T277 665Q351 665 405 625T460 511Q460 454 431 414T363 359Q424 346 459 300T494 189Q494 100 427 45T252 -11Q124 -11 61 80L60 89L71 151H104L107 147Z" />
<glyph unicode="4" glyph-name="four" horiz-adv-x="512" d="M43 218L34 223L23 245Q74 334 167 473T293 656L358 665H366L378 654Q377 645 376 630T375 598T374 577Q371 534 371 399V270H436L440 264L429 223L422 218H371Q371 121 375 82Q377 52 400 33Q418 18
462 18L466 13L468 0L466 -4Q390 0 365 0H309Q272 0 196 -4L195 0L199 14L203 18Q258 18 274 33Q296 53 298 82Q302 126 302 218H43ZM299 581Q261 537 197 440T98 270H302V397Q302 508 299 581Z" />
<glyph unicode="5" glyph-name="five" horiz-adv-x="546" d="M417 201Q417 338 270 338Q192 338 120 302L86 327L118 646L124 654H214Q311 654 416 662L425 654L440 546L434 539H416L410 544Q406 564 402 573T390 591T361 601T315 605T241 606H181Q175 606 175
601L155 377Q207 397 279 397Q323 397 359 388T425 357T473 299T490 209Q490 105 423 47T245 -11Q121 -11 61 70L60 80L71 151H107L110 147Q112 100 149 71T255 42Q340 42 378 87T417 201Z" />
<glyph unicode="6" glyph-name="six" horiz-adv-x="559" d="M145 337L148 336Q196 401 291 401Q354 401 399 381T464 327T493 263T502 200Q502 115 449 52T290 -11Q175 -11 125 70T74 303Q74 372 84 430T117 544T189 632T305 665Q415 665 464 618L449 555H431Q397
612 312 612Q266 612 232 592T179 536T152 458T143 366Q143 353 145 337ZM296 346Q226 346 190 308T153 203Q153 177 159 151T180 100T222 58T289 42Q356 42 395 86T434 202Q434 260 404 303T296 346Z" />
<glyph unicode="7" glyph-name="seven" horiz-adv-x="513" d="M195 7L190 0Q144 0 96 -6L89 4L285 362Q396 570 396 602L391 606H255Q139 606 108 597T68 544L62 539H44L39 546L54 654L62 662Q231 654 367 654H504L509 651L504 626Q484 601 410 463T285 219Q216
75 195 7Z" />
<glyph unicode="8" glyph-name="eight" horiz-adv-x="572" d="M200 665T283 665T419 622T473 500Q473 401 386 367Q448 346 477 297T507 186Q507 104 454 47T285 -11Q170 -11 118 46T65 186Q65 250 95 298T186 367Q99 403 99 501Q99 578 149 621ZM284 335Q211
335 176 288T141 181Q141 129 176 86T286 42Q361 42 396 82T431 179Q431 241 395 288T284 335ZM397 504Q397 612 284 612Q175 612 175 506Q175 447 205 416T286 384Q334 384 365 419T397 504Z" />
<glyph unicode="9" glyph-name="nine" horiz-adv-x="558" d="M414 317L411 318Q362 253 268 253Q205 253 160 273T95 327T66 391T57 454Q57 507 77 553T146 632T269 665Q384 665 434 584T485 351Q485 282 475 224T441 110T369 22T253 -11Q143 -11 95 36L110 99H128Q161
42 247 42Q293 42 327 62T380 118T407 196T416 288Q416 301 414 317ZM263 308Q333 308 369 346T405 451Q405 478 399 503T379 554T337 596T269 612Q203 612 164 568T125 452Q125 394 155 351T263 308Z" />
<glyph unicode=":" glyph-name="colon" horiz-adv-x="227" d="M67 16T67 35T80 68T113 83T146 69T161 35T147 3T113 -11T81 2ZM67 408Q67 427 80 441T113 455T146 441T161 408T147 375T113 361T81 374T67 408Z" />
<glyph unicode=";" glyph-name="semicolon" horiz-adv-x="237" d="M73 408Q73 427 86 441T119 455T152 441T167 408T153 375T119 361T87 374T73 408ZM78 -77H73L66 -71V-67Q90 -31 90 1Q90 7 84 23T78 50Q78 65 97 74T137 83Q163 83 163 40Q163 5 134 -31T78 -77Z" />
<glyph unicode="&lt;" glyph-name="less" horiz-adv-x="416" d="M123 243V238Q206 180 341 101V94L332 56L328 52Q187 154 43 238V243Q187 327 328 429L332 425L341 387V380Q220 311 123 243Z" />
<glyph unicode="=" glyph-name="equal" horiz-adv-x="488" d="M84 189H413L403 137H75L84 189ZM84 341H413L403 289H75L84 341Z" />
<glyph unicode="&gt;" glyph-name="greater" horiz-adv-x="416" d="M293 238V243Q196 311 75 380V387L84 425L88 429Q229 327 373 243V238Q229 154 88 52L84 56L75 94V101Q210 180 293 238Z" />
<glyph unicode="?" glyph-name="question" horiz-adv-x="427" d="M222 234L218 172L212 165L177 149L171 153Q171 165 170 187T169 226T168 250Q168 286 189 325T235 393T281 463T302 543Q302 591 271 617T202 644Q151 644 117 612T76 532L74 529H56L44 622L46
631Q62 657 112 671T205 686Q230 686 255 679T308 655T352 605T369 526Q369 484 347 439T297 361T247 293T222 234ZM148 17T148 36T161 69T194 83T227 69T242 36T228 3T194 -11T162 3Z" />
<glyph unicode="@" glyph-name="at" horiz-adv-x="718" d="M414 229L439 354Q433 360 414 360Q354 360 322 302T289 180Q289 116 321 116Q346 116 376 153T414 229ZM592 11L575 -23Q549 -48 485 -74T347 -101Q224 -101 139 -23T54 180Q54 227 66 276T107 375T176
462T275 524T406 548Q474 548 527 527T613 469T661 390T678 301Q678 209 621 142T474 74Q429 74 415 92T401 147Q385 114 359 94T307 73Q274 73 249 105T223 193Q223 278 282 333T414 389Q480 389 512 356L475 178Q471 148 471 143Q471 115 500 115Q552 115 587
170T623 297Q623 381 568 444T405 507Q314 507 245 457T144 334T111 180Q111 61 181 1T357 -59Q430 -59 488 -34T579 21L592 11Z" />
<glyph unicode="A" glyph-name="A" horiz-adv-x="675" d="M361 665H372L536 211Q569 119 583 87Q597 56 614 41T644 23T679 20L684 16L687 -2L685 -6Q683 -6 640 -3T586 0H553Q545 0 522 -1T471 -4T440 -6L438 -2L441 16L445 20Q477 20 491 28T506 62Q506 71 504
82T496 111T484 144L469 186L452 231L435 279H211L194 231L177 186L162 144Q156 129 151 112T143 83T140 62Q140 36 154 28T201 20L206 16L209 -2L207 -6Q201 -6 177 -4T130 -1T100 0H81Q70 0 27 -3T-18 -6L-19 -2L-17 16L-12 20Q4 20 13 21T36 28T61 48T84 87Q95
109 214 414L265 543L302 635L361 665ZM324 579L228 322H419L324 579Z" />
<glyph unicode="B" glyph-name="B" horiz-adv-x="587" d="M290 0H157Q149 0 126 -1T77 -4T45 -6L43 -2L46 16L51 20Q90 20 104 29Q124 43 129 87Q131 127 131 221V471Q131 534 129 567Q127 606 104 624Q87 634 51 634L46 638L43 656L45 660Q47 660 83 657T137
654H173Q189 654 226 654T272 655Q474 655 474 504Q474 404 383 359Q535 332 535 188Q535 93 469 47T290 0ZM297 332H202Q202 128 205 87Q206 62 214 55T240 48H301Q339 48 373 58T436 101T466 186Q466 256 419 294T297 332ZM219 369H249Q327 369 362 394Q412 427
412 497Q412 549 382 577T297 606H207Q202 511 202 472V410Q202 384 204 377T219 369Z" />
<glyph unicode="C" glyph-name="C" horiz-adv-x="653" d="M551 535Q547 563 520 581T459 605T384 612Q285 612 228 567Q182 529 158 467T134 328Q134 191 209 116T404 41Q520 41 600 97L610 86L588 41Q493 -11 386 -11Q237 -11 146 81T54 324Q54 472 142 568T390
665Q507 665 593 631L596 622L583 531H554L551 535Z" />
<glyph unicode="D" glyph-name="D" horiz-adv-x="734" d="M129 567Q125 608 104 624Q87 634 51 634L46 638L43 656L45 660Q51 660 72 658T114 655T148 654H205Q223 654 278 656T349 658Q500 658 589 563T679 328Q679 189 590 94T343 -2Q332 -2 279 -1T210 0H157Q149
0 126 -1T77 -4T45 -6L43 -2L46 16L51 20Q90 20 104 29Q124 43 129 87Q131 127 131 211V414Q131 534 129 567ZM254 48H350Q466 48 532 127T598 328Q598 451 530 528T345 606H207Q202 511 202 415V231Q202 110 205 87Q208 62 217 55T254 48Z" />
<glyph unicode="E" glyph-name="E" horiz-adv-x="561" d="M167 654H331Q351 654 423 656T499 658L504 648L500 539H475L471 543Q468 589 446 597T303 606H207L205 567Q202 512 202 415V366Q218 366 249 366T296 367T333 369T365 374T381 383Q401 405 401 422L406
427L423 429L427 427Q422 352 422 348Q422 339 427 259L423 257L405 259L401 262Q401 292 381 314Q376 319 366 322T335 326T298 327T250 328H202V231Q202 118 207 67Q207 48 227 48H312Q396 48 430 54T476 74T499 129L503 133H529L511 6L503 -4Q500 -4 440 -2T359
0H157Q149 0 126 -1T77 -4T45 -6L43 -2L46 16L51 20Q91 20 104 30Q126 50 129 87Q131 127 131 211V414Q131 536 129 567Q127 603 104 624Q91 634 51 634L46 638L43 656L45 660Q159 654 167 654Z" />
<glyph unicode="F" glyph-name="F" horiz-adv-x="529" d="M129 567Q126 604 104 624Q91 634 51 634L46 638L43 656L45 660Q50 660 76 658T126 655T157 654H331Q351 654 423 656T499 658L504 648L500 539H475L471 543Q468 589 446 597T303 606H207L205 567Q202
512 202 415V366Q218 366 249 366T296 367T333 369T365 374T381 383Q401 405 401 422L406 427L423 429L427 427Q422 352 422 348Q422 339 427 259L423 257L405 259L401 262Q401 292 381 314Q376 319 366 322T335 326T298 327T250 328H202V231Q202 134 205 87Q207
50 232 30Q245 20 292 20L297 16L300 -2L298 -6Q184 0 176 0H157Q149 0 126 -1T77 -4T45 -6L43 -2L46 16L51 20Q91 20 104 30Q126 50 129 87Q131 127 131 211V414Q131 505 129 567Z" />
<glyph unicode="G" glyph-name="G" horiz-adv-x="689" d="M592 30L588 25L524 6Q503 0 463 -5T375 -11Q223 -11 139 84T55 323Q55 471 143 568T391 665Q491 665 593 625L595 616L582 526H554L550 529Q539 612 384 612Q286 612 229 567Q135 490 135 327Q135 196
202 122T387 48Q456 48 510 69Q518 72 518 90Q518 155 516 181Q513 218 491 238Q478 248 430 248L425 252L422 274L424 278Q429 278 454 276T502 273T533 272H563Q574 272 610 275T651 278L653 274L651 250L646 246Q595 246 592 181Q589 126 589 75Q589 39 592
30Z" />
<glyph unicode="H" glyph-name="H" horiz-adv-x="760" d="M717 -2L715 -6Q710 -6 684 -4T634 -1T603 0H584Q576 0 553 -1T504 -4T472 -6L470 -2L473 16L477 20Q518 20 531 30Q551 48 555 87Q558 117 558 211V326H202V231Q202 134 205 87Q207 50 229 30Q242 20
283 20L287 16L290 -2L288 -6Q283 -6 257 -4T207 -1T176 0H157Q149 0 126 -1T77 -4T45 -6L43 -2L46 16L51 20Q91 20 104 30Q126 50 129 87Q131 127 131 211V414Q131 536 128 567Q125 605 104 624Q91 634 51 634L46 638L43 656L45 660Q50 660 76 658T126 655T157
654H176Q184 654 207 655T256 658T288 660L290 656L287 638L283 634Q242 634 229 624Q207 604 205 567Q202 530 202 415V370H558V414Q558 520 555 567Q553 604 531 624Q518 634 477 634L473 638L470 656L472 660Q477 660 503 658T553 655T584 654H603Q611 654 634
655T683 658T715 660L717 656L714 638L709 634Q669 634 656 624Q634 604 631 567Q629 530 629 415V231Q629 118 631 87Q633 51 656 30Q669 20 709 20L714 16L717 -2Z" />
<glyph unicode="I" glyph-name="I" horiz-adv-x="334" d="M288 660L290 656L287 638L283 634Q242 634 229 624Q207 604 205 567Q202 530 202 415V231Q202 134 205 87Q207 50 229 30Q242 20 283 20L287 16L290 -2L288 -6Q283 -6 257 -4T207 -1T176 0H157Q149 0
126 -1T77 -4T45 -6L43 -2L46 16L51 20Q91 20 104 30Q126 50 129 87Q131 127 131 211V414Q131 536 128 567Q125 605 104 624Q91 634 51 634L46 638L43 656L45 660Q50 660 76 658T126 655T157 654H176Q184 654 207 655T256 658T288 660Z" />
<glyph unicode="J" glyph-name="J" horiz-adv-x="320" d="M282 660L284 656L281 638L277 634Q236 634 223 624Q201 604 199 567Q196 530 196 415V231Q196 175 196 129T195 76Q194 -9 159 -75T64 -153Q48 -156 28 -156L20 -153L18 -131L22 -126Q52 -126 65 -121Q77
-114 88 -103Q102 -89 109 -66T120 4T124 89T125 211V414Q125 520 122 567Q120 604 98 624Q85 634 45 634L40 638L37 656L39 660Q44 660 70 658T120 655T151 654H170Q178 654 201 655T250 658T282 660Z" />
<glyph unicode="K" glyph-name="K" horiz-adv-x="656" d="M288 660L290 656L287 638L283 634Q242 634 229 624Q207 604 205 567Q202 530 202 415V347Q261 383 342 464Q385 507 414 545T443 596Q443 602 442 607T437 615T430 621T421 626T411 629T400 631T389 634L384
638V656L389 660Q430 654 477 654H526Q562 654 606 660L610 656V638L606 634Q546 620 534 612Q522 605 505 586L453 528L382 452L302 370Q385 244 486 125Q532 71 565 49T661 20L667 16L669 -2L667 -6Q652 -6 617 -8T573 -10Q525 -10 495 12T412 99Q386 131 249
330H245Q241 327 226 317T202 299V231Q202 134 205 87Q207 50 229 30Q242 20 283 20L287 16L290 -2L288 -6Q283 -6 257 -4T207 -1T176 0H157Q149 0 126 -1T77 -4T45 -6L43 -2L46 16L51 20Q91 20 104 30Q126 50 129 87Q131 127 131 211V414Q131 536 129 567Q127
603 104 624Q91 634 51 634L46 638L43 656L45 660Q50 660 76 658T126 655T157 654H176Q184 654 207 655T256 658T288 660Z" />
<glyph unicode="L" glyph-name="L" horiz-adv-x="514" d="M129 567Q126 604 104 624Q91 634 51 634L46 638L43 656L45 660Q50 660 76 658T126 655T157 654H176Q184 654 207 655T256 658T288 660L290 656L287 638L283 634Q242 634 229 624Q207 604 205 567Q202
530 202 415V231Q202 180 205 87L207 67Q207 48 227 48H312H360Q378 48 395 50T421 52T440 58L452 65Q455 67 459 76T464 89T468 107T473 129L476 133H502L484 6L476 -4Q473 -4 426 -2T359 0H157Q149 0 126 -1T77 -4T45 -6L43 -2L46 16L51 20Q91 20 104 30Q125
49 129 87Q131 127 131 211V414Q131 505 129 567Z" />
<glyph unicode="M" glyph-name="M" horiz-adv-x="893" d="M871 -2L870 -6Q865 -6 839 -4T789 -1T758 0H739Q731 0 708 -1T659 -4T627 -6L624 -2L627 16L631 20Q672 20 684 30Q704 50 704 87Q704 132 699 211Q679 489 672 551L454 13H412L209 549Q208 537 207 522T203
476L199 415L185 231Q178 141 178 87Q178 49 199 30Q210 20 244 20L248 16L251 -2L249 -6Q246 -6 205 -3T153 0H134Q126 0 103 -1T54 -4T23 -6L21 -2L24 16L30 20Q69 20 83 30Q107 50 112 87Q117 122 124 211L138 414Q146 520 146 567Q146 606 121 624Q108 634
68 634L63 638L60 656L62 660Q67 660 93 658T143 655T174 654H209Q225 654 249 658L254 655Q255 645 259 629T271 591T286 548L306 500Q317 470 323 452L391 267Q410 214 448 128Q464 152 549 367T644 654L649 658Q671 654 683 654H719Q727 654 750 655T799 658T831
660L833 656L830 638L825 634Q784 634 772 624Q747 604 747 567Q747 525 755 415L767 231Q775 126 781 87Q786 49 809 30Q822 20 863 20L868 16L871 -2Z" />
<glyph unicode="N" glyph-name="N" horiz-adv-x="746" d="M707 660L708 656L706 638L701 634Q660 634 648 624Q628 608 625 567Q622 530 622 415V239Q622 86 629 -4L621 -9L563 -5L553 7L193 540Q192 514 192 415V231Q192 118 195 87Q199 45 220 30Q234 20 274
20L279 16L282 -2L280 -6Q274 -6 251 -4T206 -1T176 0H157Q149 0 126 -1T77 -4T45 -6L43 -2L46 16L51 20Q90 20 104 30Q125 46 129 87Q131 107 131 211V414Q131 536 129 567Q126 607 104 624Q91 634 51 634L46 638L43 656L45 660Q48 660 89 657T141 654H176Q193
654 217 658L222 655Q230 624 351 431L440 294L522 181L558 132Q559 151 559 211V414Q559 520 556 567Q553 605 532 624Q519 634 478 634L474 638L471 656L473 660Q477 660 516 657T566 654H613Q650 654 707 660Z" />
<glyph unicode="O" glyph-name="O" horiz-adv-x="763" d="M232 665T382 665T620 568T709 329T620 89T375 -11Q223 -11 139 84T55 322Q55 469 143 567ZM381 42Q496 42 564 124T632 328Q632 452 563 532T376 612Q261 612 197 534T133 329Q133 197 201 120T381 42Z" />
<glyph unicode="P" glyph-name="P" horiz-adv-x="548" d="M290 -2L288 -6Q283 -6 257 -4T207 -1T176 0H157Q149 0 126 -1T77 -4T45 -6L43 -2L46 16L51 20Q90 20 104 29Q124 43 129 87Q131 127 131 211V471Q131 534 129 567Q127 605 104 624Q87 634 51 634L46 638L43
656L45 660Q47 660 83 657T137 654H173Q189 654 226 654T273 655Q518 655 518 474Q518 419 495 379T432 319T350 291T258 282H202Q202 129 205 87Q207 49 229 30Q246 20 283 20L287 16L290 -2ZM240 326H293Q449 326 449 469Q449 536 408 571T294 606H207Q202 511
202 472V363Q202 338 208 332T240 326Z" />
<glyph unicode="Q" glyph-name="Q" horiz-adv-x="763" d="M232 665T382 665T620 568T709 329Q709 195 627 97T399 -10Q472 -11 567 -46T714 -82Q757 -82 789 -63L792 -65L796 -73L795 -77Q742 -138 674 -138Q637 -138 588 -116T481 -72T363 -50Q282 -50 252 -71L249
-70L244 -56L245 -53Q299 -16 369 -11Q220 -10 138 85T55 322Q55 469 143 567ZM381 42Q496 42 564 124T632 328Q632 452 563 532T376 612Q261 612 197 534T133 329Q133 197 201 120T381 42Z" />
<glyph unicode="R" glyph-name="R" horiz-adv-x="634" d="M291 -2L289 -6Q284 -6 258 -4T208 -1T177 0H158Q150 0 127 -1T78 -4T46 -6L44 -2L47 16L52 20Q92 20 105 29Q125 43 130 87Q132 127 132 211V471Q132 518 129 567Q126 606 105 624Q88 634 52 634L47 638L44
656L46 660Q48 660 84 657T138 654H174Q190 654 227 654T274 655Q401 655 460 609T519 485T470 362T351 300Q420 204 487 125Q533 71 566 49T662 20L668 16L670 -2L668 -6Q652 -6 618 -8T574 -10Q526 -10 496 12T413 99Q402 110 276 293H203Q203 129 206 87Q208
49 230 30Q247 20 284 20L288 16L291 -2ZM241 337H294Q450 337 450 479Q450 539 409 572T295 606H208Q203 511 203 472V374Q203 348 209 343T241 337Z" />
<glyph unicode="S" glyph-name="S" horiz-adv-x="550" d="M138 508Q138 457 173 434T305 379Q349 365 379 351T441 314T489 256T505 175Q505 110 471 67T384 7T264 -11Q154 -11 59 38L55 51L72 158H97L102 152Q112 34 271 34Q347 34 387 69T428 162Q428 185 422
203T401 236T375 260T336 280L298 296Q286 300 254 310Q162 339 114 380T65 494Q65 583 123 624T278 665Q382 665 458 631L462 620L448 531H420L415 536Q413 568 387 588T334 613T277 618Q212 618 175 589T138 508Z" />
<glyph unicode="T" glyph-name="T" horiz-adv-x="589" d="M433 -2L431 -6Q426 -6 401 -4T354 -1T323 0H266Q258 0 236 -1T190 -4T159 -6L157 -2L160 16L165 20Q217 20 229 30Q254 50 257 87Q260 117 260 211V414Q260 504 257 606H246Q87 606 70 595Q48 583 43
543L39 539H16L23 653L27 662L33 665Q60 654 231 654H357Q529 654 555 665L561 662L565 653L573 539H549L545 543Q540 583 518 595Q501 606 343 606H332Q330 530 330 415V231Q330 134 333 87Q336 50 361 30Q373 20 425 20L430 16L433 -2Z" />
<glyph unicode="U" glyph-name="U" horiz-adv-x="723" d="M695 660L697 656L694 638L690 634Q649 634 636 624Q614 604 612 567Q609 520 609 414V222Q609 119 548 54T368 -11Q235 -11 175 52T114 222V414Q114 536 112 567Q110 603 87 624Q74 634 34 634L29 638L26
656L28 660Q33 660 59 658T109 655T140 654H159Q167 654 190 655T239 658T271 660L273 656L270 638L266 634Q225 634 212 624Q190 604 188 567Q185 530 185 415V250Q185 48 368 48Q552 48 552 250V415Q552 530 549 567Q546 606 524 624Q512 634 471 634L466 638L463
656L465 660Q466 660 510 657T566 654H588Q596 654 618 655T664 658T695 660Z" />
<glyph unicode="V" glyph-name="V" horiz-adv-x="674" d="M314 -11H302L139 443Q104 537 91 567Q77 598 60 614T30 632T-5 634L-10 638L-12 656L-11 660Q-9 660 34 657T88 654H122Q130 654 153 655T204 658T235 660L237 656L234 638L229 634Q197 634 183 626T168
592Q168 583 170 572T178 543T190 510L205 468L222 423L290 239Q348 80 350 74L412 239L480 423L497 468L512 510Q518 525 523 542T531 571T534 592Q534 618 520 626T473 634L468 638L466 656L468 660Q474 660 498 658T544 655T574 654H593Q604 654 647 657T692
660L694 656L691 638L686 634Q664 634 652 632T623 614T590 567Q572 526 460 240L424 147L386 52Q370 13 366 0L314 -11Z" />
<glyph unicode="W" glyph-name="W" horiz-adv-x="1096" d="M314 -11H302L139 443Q104 537 91 567Q77 598 60 614T30 632T-5 634L-10 638L-12 656L-11 660Q-9 660 34 657T88 654H122Q130 654 153 655T204 658T235 660L237 656L234 638L229 634Q197 634 183 626T168
592Q168 583 170 572T178 543T190 510L205 468L222 423L290 239Q348 80 350 74L412 239L480 423L497 468L514 514L525 546Q524 548 521 555T517 567Q503 602 487 618T436 634L431 638L429 656L430 660Q434 660 471 657T520 654H553Q554 654 668 660L670 656L667
638L662 634Q637 634 615 619T592 580Q592 570 594 566Q598 548 644 423L712 239L743 153L772 74L834 239L902 423L919 468L934 510Q940 525 945 542T953 571T956 592Q956 618 942 626T895 634L891 638L888 656L890 660Q896 660 920 658T966 655T996 654H1015Q1026
654 1069 657T1114 660L1116 656L1113 638L1108 634Q1086 634 1074 632T1045 614T1012 567Q994 526 882 240L846 147L808 52Q792 13 788 0L736 -11H724L550 471Q537 440 460 240L406 104Q371 15 366 0L314 -11Z" />
<glyph unicode="X" glyph-name="X" horiz-adv-x="662" d="M215 622Q204 614 204 605Q204 594 213 581Q271 477 337 381Q414 480 451 566Q457 578 457 594Q457 603 454 610T442 620T427 626T408 630L390 634L385 638V656L390 660Q429 654 482 654H540Q587 654 631
660L635 656V638L631 634Q588 627 564 610T508 548L364 339L446 218L516 116Q538 83 543 77Q559 59 568 51T600 34T657 20L666 13V-1L660 -7Q596 1 555 1H515Q474 1 402 -7L397 -1V14L402 20Q427 22 445 32T463 58Q463 98 327 288Q209 136 181 78Q177 70 177 60Q177
42 190 34T252 20L258 14V0L252 -6Q214 0 146 0H99Q45 0 1 -6L-4 0V13L4 20Q50 27 72 40T127 94Q171 150 297 330Q237 413 129 577Q110 604 96 615Q78 629 34 634L26 638V656L32 660Q78 654 120 654H163Q218 654 274 660L279 656V638L274 634Q231 632 215 622Z"
/>
<glyph unicode="Y" glyph-name="Y" horiz-adv-x="606" d="M427 -2L425 -6Q420 -6 394 -4T344 -1T313 0H294Q286 0 263 -1T212 -4T181 -6L180 -2L182 16L187 20Q228 20 240 30Q262 48 265 87Q268 117 268 211V250Q268 288 244 327Q177 445 91 577Q77 599 59 615Q41
629 -3 634L-11 638V656L-6 660Q58 652 83 652H125Q163 652 237 660L241 656V638L237 634Q194 632 178 622Q166 613 166 605Q166 596 176 581L314 332Q413 501 438 564Q448 584 448 599Q448 611 441 617T425 626T400 630T377 634L373 638V656L377 660Q416 654 469
654H527Q575 654 619 660L623 656V638L619 634Q573 627 550 612T498 554Q441 470 352 314Q338 292 338 264V229Q338 134 341 87Q344 48 366 30Q378 20 419 20L424 16L427 -2Z" />
<glyph unicode="Z" glyph-name="Z" horiz-adv-x="614" d="M62 539L56 546L72 654L80 662Q249 654 404 654H470Q515 654 552 662L560 651L555 626Q499 570 335 328T171 59L179 48H253Q322 48 356 48T427 52T478 59T507 73T527 95T537 127L543 133H570L552 4L543
-6Q435 0 309 0H149Q114 0 46 -6L36 5V28Q98 89 256 324T415 595L405 606H273Q157 606 126 597T86 544L80 539H62Z" />
<glyph unicode="[" glyph-name="bracketleft" horiz-adv-x="284" d="M260 755L261 751L259 733L254 729Q194 729 182 719Q160 701 157 662Q154 625 154 482V231Q154 38 157 -8Q160 -47 182 -65Q194 -75 254 -75L259 -79L261 -97L260 -101Q254 -101 231 -99T186
-96T157 -95H81L79 -91Q91 6 91 211V481Q91 663 79 745L81 749H157Q165 749 186 750T230 753T260 755Z" />
<glyph unicode="\" glyph-name="backslash" horiz-adv-x="432" d="M394 -53L393 -57H315L312 -53Q290 40 214 249L147 433Q74 629 39 698V702H117L120 698Q135 628 205 433L271 249Q344 48 394 -53Z" />
<glyph unicode="]" glyph-name="bracketright" horiz-adv-x="284" d="M23 751L24 755Q30 755 53 753T98 750T127 749H203L205 745Q193 663 193 481V211Q193 6 205 -91L203 -95H127Q119 -95 98 -96T54 -99T24 -101L23 -97L25 -79L30 -75Q90 -75 102 -65Q124 -47
127 -8Q130 38 130 231V482Q130 625 127 662Q124 701 102 719Q90 729 30 729L25 733L23 751Z" />
<glyph unicode="^" glyph-name="asciicircum" horiz-adv-x="348" d="M170 673H178L288 574L291 567L285 548L278 545L174 606L70 545L63 548L57 567L60 574L170 673Z" />
<glyph unicode="_" glyph-name="underscore" horiz-adv-x="445" d="M6 0H439V-52H6V0Z" />
<glyph unicode="`" glyph-name="grave" horiz-adv-x="219" d="M213 552L205 549L4 626Q0 635 0 645Q0 678 35 680L216 579L219 572L213 552Z" />
<glyph unicode="a" glyph-name="a" horiz-adv-x="496" d="M330 -3L324 7Q327 21 332 84Q303 44 259 17T164 -11Q104 -11 71 27T37 121Q37 191 99 231Q131 251 184 262T270 276T326 279H340Q339 344 328 373Q307 430 225 430Q183 430 150 414T113 356L109 353H87L78
427L81 433Q93 446 142 460T240 475Q315 475 362 436T409 323Q409 262 407 188T405 78Q409 38 420 29Q432 18 475 18L479 14L480 0L479 -4Q431 0 399 0Q362 0 330 -3ZM324 115Q334 133 335 144L340 244H331Q108 244 108 127Q108 89 129 67T187 44Q225 44 266 67T324
115Z" />
<glyph unicode="b" glyph-name="b" horiz-adv-x="598" d="M178 7L171 0H125Q98 0 22 -4L21 0L22 14L26 18Q69 18 81 29Q92 39 96 78L97 87Q99 137 99 234V474Q99 596 96 662Q95 678 83 693Q68 710 27 710L23 714V727L27 731H45Q108 731 133 735L168 740L174 731Q166
713 166 654Q166 641 166 591T165 476V380Q229 475 331 475Q438 475 494 406T551 238Q551 173 531 123T477 45T406 3T332 -11Q225 -11 168 82Q168 44 178 7ZM475 236Q475 311 437 364T326 418Q256 418 211 371T165 285V176Q174 131 215 88T324 44Q398 44 436 100T475
236Z" />
<glyph unicode="c" glyph-name="c" horiz-adv-x="507" d="M446 353H425L421 356Q421 385 398 402T349 425T297 430Q211 430 165 373T119 234T168 96T312 40Q389 40 459 77L469 67L454 39Q429 21 382 5T288 -11Q187 -11 115 57T43 230Q43 338 117 406T299 475Q389
475 454 439L457 430L446 353Z" />
<glyph unicode="d" glyph-name="d" horiz-adv-x="598" d="M427 -3L420 7Q424 22 429 83Q367 -11 266 -11Q159 -11 103 57T47 226Q47 291 67 341T121 419T191 461T265 475Q375 475 432 381V474Q432 619 429 662Q428 678 416 693Q401 710 360 710L356 714V727L360
731H378Q441 731 466 735L501 740L507 731Q500 716 500 654Q500 641 499 591T498 476V258Q498 172 502 78Q506 38 516 29Q529 18 571 18L575 14L577 0L575 -4Q527 0 495 0Q458 0 427 -3ZM123 228Q123 153 161 100T272 46Q339 46 384 90T432 174V285Q426 328 385
374T274 420Q200 420 162 364T123 228Z" />
<glyph unicode="e" glyph-name="e" horiz-adv-x="525" d="M487 293L480 269L464 262Q428 262 353 261T241 260H123Q122 251 122 234Q122 152 170 98T318 44Q398 44 450 74L460 68V50L450 39Q386 -11 284 -11Q179 -11 113 56T46 230Q46 338 113 406T279 475Q309
475 338 468T399 442T455 386T487 293ZM280 430Q219 430 179 394T128 301H167Q268 301 379 307Q401 308 401 328Q401 337 397 349Q386 387 356 408T280 430Z" />
<glyph unicode="f" glyph-name="f" horiz-adv-x="336" d="M313 418L308 413H181V258Q181 127 185 78Q189 38 200 29Q215 18 271 18L276 13L278 0L276 -4Q200 0 166 0H142Q114 0 38 -4L37 0L38 14L42 18Q85 18 97 29Q109 41 112 74T115 234V413H41L37 418V451L41
455H115V512Q115 620 156 682T272 745Q322 745 378 715L383 705L371 628H345Q341 659 316 677T258 696Q231 696 214 686T191 652T183 612T181 561V455H308L313 451V418Z" />
<glyph unicode="g" glyph-name="g" horiz-adv-x="491" d="M470 418L465 413H371Q416 359 416 289Q416 218 369 171T232 124Q226 124 216 124T200 125Q185 119 176 107T166 86Q166 65 223 58L304 48Q374 40 417 6T461 -87Q461 -153 409 -198Q349 -248 239 -248Q138
-248 87 -208T35 -111Q35 -70 62 -37T134 12Q86 32 86 68Q86 92 103 107T152 136Q100 155 75 197T50 294Q50 371 98 422T230 474Q278 474 318 455H465L470 451V418ZM234 166Q287 166 315 201T343 289Q343 345 314 387T228 430Q175 430 148 391T121 298Q121 244
149 205T234 166ZM261 -10L210 -5Q157 -7 127 -36T97 -100Q97 -138 136 -162T245 -186Q312 -186 353 -163T395 -97Q395 -25 261 -10Z" />
<glyph unicode="h" glyph-name="h" horiz-adv-x="596" d="M433 -3L426 7Q433 30 435 78Q439 151 439 228Q439 289 431 325Q422 370 391 394T318 418Q257 418 211 372T165 288Q165 172 169 78Q173 39 184 29Q197 18 236 18L241 13L243 0L241 -4Q165 0 139 0H125Q98
0 22 -4L21 0L22 14L26 18Q69 18 81 29T96 78Q99 129 99 234V474Q99 598 96 662Q95 678 83 693Q68 710 27 710L23 714V727L27 731H45Q108 731 133 735L168 740L174 731Q168 718 168 654Q168 641 167 591T165 476V370Q226 475 336 475Q398 475 446 440T503 337Q507
302 507 223V82Q507 42 522 29Q535 18 578 18L581 14L583 0L581 -4Q535 0 502 0Q464 0 433 -3Z" />
<glyph unicode="i" glyph-name="i" horiz-adv-x="277" d="M255 0L253 -4Q177 0 151 0H137Q110 0 34 -4L33 0L34 14L38 18Q81 18 93 29Q104 39 108 78Q111 111 111 163V286Q111 346 108 386Q105 407 95 417Q81 434 39 434L35 438V452L39 455H57Q120 455 145 459L180
464L186 455Q179 440 179 380Q179 374 178 347T177 287V175Q177 134 181 78Q184 40 196 29Q209 18 248 18L253 13L255 0ZM85 631Q85 651 99 665T132 680Q152 680 166 665T181 631T167 598T132 584T99 598T85 631Z" />
<glyph unicode="j" glyph-name="j" horiz-adv-x="250" d="M23 438V452L27 455H45Q108 455 133 459L168 464L173 455Q171 449 167 378Q165 330 165 232V-4Q165 -101 131 -170T35 -257Q22 -260 -1 -260L-9 -258L-11 -239L-7 -234Q37 -234 59 -210Q94 -172 96 -62Q99
16 99 204Q99 339 96 385Q95 405 83 417Q69 434 27 434L23 438ZM73 631Q73 651 87 665T120 680Q140 680 154 665T169 631T155 598T120 584T87 598T73 631Z" />
<glyph unicode="k" glyph-name="k" horiz-adv-x="526" d="M23 714V727L27 731H45Q108 731 133 735L168 740L174 731Q168 718 168 654Q168 641 167 591T165 476V238L284 348Q286 350 298 361L321 382Q332 393 335 397Q344 408 344 415Q344 432 298 439L294 443V455L298
459Q348 453 375 453H403Q429 453 481 459L484 455V441L479 436Q437 426 430 422Q378 390 305 319L264 281Q286 247 301 230L390 120Q393 117 406 101L422 80Q426 75 437 63T456 45L475 32Q486 25 497 22T521 18L524 14L526 0L524 -4Q501 -7 444 -7Q416 -7 391
18Q352 57 339 73L259 176Q229 215 211 233L165 187Q165 152 169 78Q170 41 184 29Q197 18 236 18L241 13L243 0L241 -4Q165 0 139 0H125Q98 0 22 -4L21 0L22 14L26 18Q69 18 81 29T96 78Q99 129 99 234V474Q99 598 96 662Q95 678 83 693Q68 710 27 710L23 714Z"
/>
<glyph unicode="l" glyph-name="l" horiz-adv-x="275" d="M29 714V727L33 731H51Q114 731 139 735L175 740L181 731Q178 725 174 654Q171 611 171 476V258Q171 172 175 78Q179 39 190 29Q203 18 242 18L247 13L249 0L247 -4Q171 0 145 0H131Q104 0 28 -4L27 0L28
14L32 18Q75 18 87 29T102 78Q105 129 105 234V474Q105 619 102 662Q101 678 89 693Q74 710 33 710L29 714Z" />
<glyph unicode="m" glyph-name="m" horiz-adv-x="923" d="M35 438V452L39 455H57Q120 455 145 459L180 464L186 455Q180 442 180 378V377Q179 376 179 375Q235 475 336 475Q392 475 436 447T497 362Q526 415 563 445T661 475Q723 475 770 440T829 336Q835 301
835 223V78Q835 41 850 29Q862 18 905 18L909 14L911 0L909 -4Q861 0 829 0Q792 0 761 -3L754 7Q761 30 763 78Q766 136 766 233Q766 298 758 335Q749 374 719 396T649 418Q598 418 560 385T507 311Q510 282 510 223V78Q510 42 526 29Q539 18 578 18L583 13L585
0L583 -4Q507 0 481 0H467Q440 0 364 -4L362 0L364 14L368 18Q411 18 423 29Q434 39 437 78Q441 156 441 233Q441 307 433 335Q422 375 393 396T324 418Q264 418 221 372T177 287V175Q177 134 181 78Q184 40 196 29Q209 18 248 18L253 13L255 0L253 -4Q177 0 151
0H137Q110 0 34 -4L33 0L34 14L38 18Q81 18 93 29Q104 39 108 78Q111 111 111 163V286Q111 346 108 386Q105 407 95 417Q81 434 39 434L35 438Z" />
<glyph unicode="n" glyph-name="n" horiz-adv-x="608" d="M255 0L253 -4Q177 0 151 0H137Q110 0 34 -4L33 0L34 14L38 18Q81 18 93 29Q104 39 108 78Q111 111 111 163V286Q111 359 108 386Q105 407 95 417Q81 434 39 434L35 438V452L39 455H57Q120 455 145 459L180
464L186 455Q182 443 179 374Q239 475 348 475Q410 475 458 440T515 336Q519 301 519 223Q519 199 519 151T520 78Q524 38 534 29Q547 18 590 18L593 14L595 0L593 -4Q547 0 514 0Q476 0 445 -3L438 7Q445 30 447 78Q451 151 451 228Q451 289 443 325Q434 370 403
394T330 418Q269 418 223 373T177 288V175Q177 115 181 78Q185 39 196 29Q209 18 248 18L253 13L255 0Z" />
<glyph unicode="o" glyph-name="o" horiz-adv-x="583" d="M291 475Q405 475 471 402T538 227Q538 128 474 59T293 -11Q174 -11 110 60T45 232Q45 334 112 404T291 475ZM292 28Q372 28 416 87T461 227Q461 306 414 369T288 433Q207 433 164 374T120 234Q120 155
167 92T292 28Z" />
<glyph unicode="p" glyph-name="p" horiz-adv-x="597" d="M22 438V452L26 455H44Q107 455 132 459L167 464L173 455Q167 443 167 384Q231 475 330 475Q437 475 493 406T550 238Q550 173 530 123T476 45T405 3T331 -11Q221 -11 164 87V-5Q164 -87 168 -179Q172
-219 183 -227Q196 -239 235 -239L240 -243L242 -257L240 -260Q230 -260 189 -259T138 -257H124Q114 -257 72 -258T21 -260L20 -257L21 -242L25 -239Q68 -239 80 -227Q92 -217 95 -179Q98 -128 98 -28V205Q98 322 95 386Q94 405 82 417Q68 434 26 434L22 438ZM474
236Q474 311 436 364T325 418Q257 418 212 374T164 289V179Q171 135 212 90T323 44Q397 44 435 100T474 236Z" />
<glyph unicode="q" glyph-name="q" horiz-adv-x="597" d="M576 -257L574 -260Q564 -260 523 -259T472 -257H458Q448 -257 406 -258T355 -260L354 -257L355 -242L359 -239Q402 -239 414 -227Q426 -217 429 -179Q432 -145 432 -28V87Q368 -11 266 -11Q159 -11 103
57T47 226Q47 291 67 341T121 419T191 461T265 475Q372 475 430 386Q430 440 424 455L430 464L465 459Q489 455 552 455H570L574 452V438L570 434Q529 434 514 417Q503 406 502 386Q498 321 498 206V-5Q498 -87 502 -179Q506 -219 517 -227Q530 -239 569 -239L574
-243L576 -257ZM123 228Q123 153 161 100T272 46Q340 46 384 90T432 175V285Q426 328 385 374T274 420Q200 420 162 364T123 228Z" />
<glyph unicode="r" glyph-name="r" horiz-adv-x="407" d="M35 438V452L39 455H57Q120 455 145 459L180 464L186 455Q178 427 178 354Q192 381 201 395T228 432T267 464T312 475Q331 475 353 470T383 455L391 446L379 369H346Q338 406 292 406Q245 406 211 358T177
264V175Q177 144 180 87L181 78Q185 38 196 29Q211 18 267 18L272 13L274 0L272 -4Q196 0 162 0H138Q110 0 34 -4L33 0L34 14L38 18Q81 18 93 29Q104 39 108 78L109 87Q111 113 111 163V286Q111 346 108 386Q105 407 95 417Q81 434 39 434L35 438Z" />
<glyph unicode="s" glyph-name="s" horiz-adv-x="439" d="M199 281L270 265Q400 236 400 136Q400 71 349 30T211 -11Q122 -11 52 25L50 34L65 137H88L91 133Q91 85 121 58T208 30Q270 30 298 56T327 116Q327 133 325 145T306 174T257 199L161 223Q52 251 52 341Q52
405 98 440T218 475Q301 475 366 439L369 430L358 353H337L333 356Q333 397 295 417T217 437Q170 437 147 414T123 356Q123 299 199 281Z" />
<glyph unicode="t" glyph-name="t" horiz-adv-x="328" d="M303 418L298 413H168Q168 337 168 263T167 145T166 99Q166 34 216 34Q256 34 292 55L301 48L288 24Q246 -11 190 -11Q97 -11 97 89Q97 96 98 141T101 262T103 413H31L27 418V451L31 455H103Q103 521 98
598L105 604L119 605Q157 609 170 616L179 612Q168 555 168 455H298L303 451V418Z" />
<glyph unicode="u" glyph-name="u" horiz-adv-x="596" d="M424 -3L418 7Q419 13 427 86Q366 -11 261 -11Q119 -11 95 120Q93 134 90 232Q89 267 89 386Q89 402 76 418Q62 434 20 434L17 438V452L20 455H38Q101 455 126 459L161 464L167 455Q161 442 161 378Q161
354 160 299T158 227Q158 166 166 130Q175 85 206 61T279 37Q335 37 377 76T430 156V286Q430 332 426 386Q423 408 414 417Q400 434 358 434L354 438V452L358 455H376Q439 455 463 459L498 464L504 455Q498 442 498 378Q498 372 497 346T496 287V175Q496 162 499
78Q503 38 514 29Q526 18 569 18L573 14L575 0L573 -4Q525 0 493 0Q456 0 424 -3Z" />
<glyph unicode="v" glyph-name="v" horiz-adv-x="515" d="M293 0L230 -5L220 0L160 160Q156 171 142 206L108 290L79 362Q69 386 61 400Q41 432 5 436L-1 441V455L3 459Q47 453 74 453H113Q142 453 194 459L198 455V443L194 439Q143 434 143 400Q143 368 212 189L261
59L309 174Q311 178 320 202L336 240Q342 255 351 281T366 326T376 365T381 400Q381 433 329 439L325 443V455L329 459Q368 453 402 453H443Q462 453 512 459L516 455V441L510 436Q475 431 457 400Q444 378 425 334T390 252L360 172Q345 130 344 128L293 0Z" />
<glyph unicode="w" glyph-name="w" horiz-adv-x="819" d="M536 -5L527 0L409 304L382 232L356 164L342 128L291 0L230 -5L220 0L160 160L142 204L108 289L79 362Q69 386 61 400Q41 432 5 436L-1 441V455L3 459Q47 453 74 453H113Q142 453 194 459L198 455V443L194
439Q143 434 143 400Q143 391 149 369T165 318L184 266L202 217Q211 192 212 189L261 59L309 174Q372 327 380 375Q375 392 372 401T355 422T323 436L317 441V455L321 459Q365 453 383 453H422Q456 453 493 459L497 455V443L493 439Q449 434 449 400Q449 391 455
369T471 318L490 266L508 217Q517 192 518 189L567 59L615 174Q617 178 626 202L642 240Q648 255 657 281T672 326T682 365T687 400Q687 433 635 439L631 443V455L635 459Q676 453 708 453H749Q765 453 817 459L820 455V441L815 436Q779 432 761 400Q744 372 720
312L672 192Q650 133 648 128L597 0L536 -5Z" />
<glyph unicode="x" glyph-name="x" horiz-adv-x="525" d="M175 410Q175 393 270 269Q305 313 332 355T359 406Q359 424 352 429T320 439L316 443V455L320 459Q360 453 384 453H425Q443 453 495 459L499 455V441L493 436Q460 431 441 420T402 380L296 234Q414 76
426 67Q458 25 507 18L513 13V-1L509 -5Q465 1 434 1H395Q369 1 317 -5L313 -1V11L317 15Q334 16 346 23T358 38Q358 59 254 199Q144 66 144 49Q144 34 155 27T192 16L196 12V0L192 -4Q165 0 129 0H88Q51 0 18 -4L14 0V14L20 19Q52 24 66 33T103 70Q188 183 225
236Q129 365 101 400Q75 432 35 436L29 441V455L33 459Q77 453 108 453H147Q172 453 224 459L228 455V443L224 439Q175 435 175 410Z" />
<glyph unicode="y" glyph-name="y" horiz-adv-x="514" d="M41 -229Q74 -229 95 -222T141 -190Q178 -152 197 -102L229 -21L160 160L79 362Q69 386 61 400Q41 432 5 436L-1 441V455L3 459Q47 453 74 453H113Q142 453 194 459L198 455V443L194 439Q143 434 143 400Q143
362 212 189L262 59L309 174Q311 178 320 202L336 240Q342 255 351 281T366 326T376 365T381 400Q381 433 329 439L325 443V455L329 459Q368 453 402 453H443Q460 453 510 459L514 455V441L509 436Q491 434 482 427T461 400Q448 378 429 334L396 252L365 172Q349
130 348 128L250 -116Q206 -225 83 -257Q70 -260 47 -260L39 -258L37 -234L41 -229Z" />
<glyph unicode="z" glyph-name="z" horiz-adv-x="488" d="M57 345L50 350L58 455L61 461Q179 455 327 455H372Q406 455 430 461L436 453L433 437Q394 397 284 234T173 51L178 44H226Q312 44 344 49T392 68T421 121L424 125H446L430 6L425 -4Q421 -4 308 -2T180
0H148Q94 0 46 -4L39 4V18Q85 63 192 222T299 411L292 418H202Q128 418 107 405T78 349L74 345H57Z" />
<glyph unicode="{" glyph-name="braceleft" horiz-adv-x="271" d="M233 760L235 749Q189 744 175 716T160 637Q160 626 161 570T162 494Q162 349 68 327Q162 305 162 160Q162 141 161 85T160 17Q160 -34 174 -62T235 -95L233 -106Q153 -106 126 -71T99 36Q99 49
100 106T101 184Q101 212 100 229T92 270T70 308T29 322V332Q54 333 70 346T92 386T99 428T101 473Q101 494 100 550T99 618Q99 689 126 724T233 760Z" />
<glyph unicode="|" glyph-name="bar" horiz-adv-x="236" d="M80 -114L79 -110Q91 -13 91 192V500Q91 682 79 764L80 768H156L158 764Q146 682 146 500V192Q146 -13 158 -110L156 -114H80Z" />
<glyph unicode="}" glyph-name="braceright" horiz-adv-x="269" d="M35 749L37 760Q117 760 144 725T171 618Q171 606 171 550T170 473Q170 451 170 438T174 403T185 367T206 344T241 332V322Q221 321 207 311T185 289T175 254T171 219T170 184Q170 164 170 107T171
36Q171 -35 144 -70T37 -106L35 -95Q81 -90 96 -62T111 17Q111 28 110 84T109 160Q109 305 203 327Q109 349 109 494Q109 513 110 569T111 637Q111 688 96 716T35 749Z" />
<glyph unicode="~" glyph-name="asciitilde" horiz-adv-x="479" d="M413 288Q413 281 405 264T375 229T325 211Q313 211 235 215T134 220T101 215T79 195L66 202Q66 222 92 250T157 279Q171 279 237 275T336 270Q383 270 401 296L413 288Z" />
</font>
</defs>
</svg>
